<svg width="39" height="39" viewBox="0 0 39 39" fill="none" xmlns="http://www.w3.org/2000/svg">
<path d="M8.40143 10.371C7.23327 11.0598 5.85401 11.2988 4.52218 11.0434C3.19035 10.788 1.99739 10.0556 1.16693 8.98354C0.33647 7.91146 -0.0744788 6.57331 0.0111161 5.21991C0.096711 3.86651 0.672973 2.59079 1.63188 1.63188C2.59079 0.672973 3.86651 0.096711 5.21991 0.0111161C6.57331 -0.0744788 7.91146 0.33647 8.98354 1.16693C10.0556 1.99739 10.788 3.19035 11.0434 4.52218C11.2988 5.85401 11.0598 7.23327 10.371 8.40143L16.6696 14.6973C17.527 14.1916 18.5046 13.926 19.5 13.9284C20.5307 13.9284 21.5002 14.2098 22.3304 14.7001L28.6262 8.40143C27.9375 7.23327 27.6984 5.85401 27.9538 4.52218C28.2092 3.19035 28.9416 1.99739 30.0137 1.16693C31.0858 0.33647 32.4239 -0.0744788 33.7773 0.0111161C35.1307 0.096711 36.4064 0.672973 37.3653 1.63188C38.3242 2.59079 38.9005 3.86651 38.9861 5.21991C39.0717 6.57331 38.6607 7.91146 37.8303 8.98354C36.9998 10.0556 35.8069 10.788 34.475 11.0434C33.1432 11.2988 31.7639 11.0598 30.5958 10.371L24.2999 16.6696C24.8076 17.5265 25.0755 18.5041 25.0755 19.5C25.0755 20.4959 24.8076 21.4735 24.2999 22.3304L30.5986 28.6262C31.7667 27.9375 33.146 27.6984 34.4778 27.9538C35.8097 28.2092 37.0026 28.9416 37.8331 30.0137C38.6635 31.0858 39.0745 32.4239 38.9889 33.7773C38.9033 35.1307 38.327 36.4064 37.3681 37.3653C36.4092 38.3242 35.1335 38.9005 33.7801 38.9861C32.4267 39.0717 31.0885 38.6607 30.0165 37.8303C28.9444 36.9998 28.212 35.8069 27.9566 34.475C27.7012 33.1432 27.9402 31.7639 28.629 30.5958L22.3304 24.2999C21.4733 24.8066 20.4956 25.0732 19.5 25.0716C18.5044 25.0732 17.5267 24.8066 16.6696 24.2999L10.3738 30.5986C11.0625 31.7667 11.3016 33.146 11.0462 34.4778C10.7908 35.8097 10.0584 37.0026 8.98632 37.8331C7.91425 38.6635 6.57609 39.0745 5.22269 38.9889C3.8693 38.9033 2.59358 38.327 1.63467 37.3681C0.675759 36.4092 0.0994969 35.1335 0.013902 33.7801C-0.0716929 32.4267 0.339256 31.0885 1.16972 30.0165C2.00018 28.9444 3.19313 28.212 4.52496 27.9566C5.85679 27.7012 7.23606 27.9402 8.40422 28.629L14.7001 22.3304C14.1934 21.4733 13.9268 20.4956 13.9284 19.5C13.9284 18.4693 14.2098 17.4998 14.7001 16.6696L8.40143 10.371Z" fill="white"/>
</svg>
