<svg width="24" height="24" viewBox="0 0 24 24" fill="none" xmlns="http://www.w3.org/2000/svg">
<path d="M8.57153 7.42859H17.7144M8.57153 11.9977H14.2858M8.57153 16.5714H17.7144" stroke="black" stroke-linecap="round" stroke-linejoin="round"/>
<path fill-rule="evenodd" clip-rule="evenodd" d="M5.14171 8.57142C5.71314 8.57142 6.28457 7.99999 6.28457 7.42856C6.28457 6.85713 5.71314 6.28571 5.14171 6.28571C4.57029 6.28571 4 6.85713 4 7.42856C4 7.99999 4.57029 8.57142 5.14171 8.57142ZM5.14171 13.1428C5.71314 13.1428 6.28457 12.5714 6.28457 12C6.28457 11.4286 5.71314 10.8571 5.14171 10.8571C4.57029 10.8571 4 11.4286 4 12C4 12.5714 4.57029 13.1428 5.14171 13.1428ZM5.14171 17.7143C5.71314 17.7143 6.28457 17.1428 6.28457 16.5714C6.28457 16 5.71314 15.4286 5.14171 15.4286C4.57029 15.4286 4 16 4 16.5714C4 17.1428 4.57029 17.7143 5.14171 17.7143Z" fill="black"/>
</svg>
