<svg width="981" height="317" viewBox="0 0 981 317" fill="none" xmlns="http://www.w3.org/2000/svg">
<path d="M0 286L132.311 194.155C140.637 188.376 151.157 186.743 160.844 189.727L217.91 207.306C237.952 213.48 259.741 207.011 273.166 190.9L325.811 127.727C333.62 118.356 345.962 114.057 357.903 116.549L451.962 136.175C460.622 137.982 469.646 136.236 477.007 131.328L606.42 45.0532C618.853 36.7648 635.303 37.8644 646.522 47.7336L678.861 76.1822C688.155 84.358 701.243 86.6452 712.759 82.1061L743.185 70.1133C754.99 65.46 768.419 67.9883 777.724 76.6167L808.014 104.703C825.258 120.694 853.273 113.38 860.5 91L876.4 54.3611C880.83 44.1516 890.109 36.863 901.077 34.976L930 30L957.5 15.5L979 0L981 4L979.5 317H0V286Z" fill="url(#paint0_linear_14_802)" fill-opacity="0.54"/>
<defs>
<linearGradient id="paint0_linear_14_802" x1="490.5" y1="0" x2="490.5" y2="317" gradientUnits="userSpaceOnUse">
<stop stop-color="#00FDC6"/>
<stop offset="1" stop-color="#11F5C4" stop-opacity="0.25"/>
</linearGradient>
</defs>
</svg>
