<svg width="431" height="431" viewBox="0 0 431 431" fill="none" xmlns="http://www.w3.org/2000/svg">
<path d="M263.669 65.2965C235.94 56.3577 206.276 55.2793 177.972 62.1809C149.667 69.0826 123.829 83.6944 103.327 104.394L133.467 134.247C148.451 119.119 167.335 108.44 188.021 103.395C208.708 98.3513 230.388 99.1395 250.653 105.672L263.669 65.2965Z" fill="#70A9ED"/>
<path d="M330.419 107.641C313.718 89.786 293.092 76.0611 270.173 67.5511L255.407 107.32C272.157 113.54 287.231 123.571 299.437 136.62L330.419 107.641Z" fill="#F9FC77"/>
<path d="M57.6993 216.554C57.8995 241.925 64.2216 266.873 76.1284 289.277C88.0352 311.682 105.175 330.881 126.09 345.243C147.006 359.605 171.08 368.705 196.266 371.771C221.452 374.837 247.006 371.777 270.756 362.851C294.506 353.926 315.751 339.399 332.684 320.505C349.618 301.611 361.74 278.908 368.02 254.326C374.301 229.743 374.554 204.008 368.759 179.307C362.963 154.606 351.29 131.669 334.732 112.445L302.59 140.131C314.691 154.181 323.223 170.944 327.458 188.997C331.694 207.05 331.509 225.859 326.919 243.825C322.329 261.791 313.469 278.383 301.093 292.192C288.717 306.001 273.191 316.618 255.833 323.141C238.475 329.664 219.799 331.9 201.392 329.66C182.984 327.419 165.39 320.768 150.104 310.272C134.817 299.775 122.291 285.744 113.589 269.369C104.887 252.995 100.266 234.762 100.12 216.219L57.6993 216.554Z" fill="#70ED8C"/>
<path d="M99.3364 108.573C73.6932 136.435 58.9379 172.598 57.7694 210.446L100.171 211.755C101.025 184.094 111.809 157.664 130.551 137.301L99.3364 108.573Z" fill="#01BD82"/>
</svg>
