<svg width="21" height="23" viewBox="0 0 21 23" fill="none" xmlns="http://www.w3.org/2000/svg">
<path d="M10.4999 7.48213C9.97227 7.48213 9.44981 7.58606 8.96234 7.78797C8.47487 7.98989 8.03194 8.28584 7.65885 8.65894C7.28576 9.03203 6.9898 9.47495 6.78789 9.96242C6.58597 10.4499 6.48205 10.9724 6.48205 11.5C6.48205 12.0276 6.58597 12.5501 6.78789 13.0376C6.9898 13.525 7.28576 13.968 7.65885 14.341C8.03194 14.7141 8.47487 15.0101 8.96234 15.212C9.44981 15.4139 9.97227 15.5178 10.4999 15.5178C11.5655 15.5178 12.5875 15.0945 13.341 14.341C14.0945 13.5876 14.5178 12.5656 14.5178 11.5C14.5178 10.4344 14.0945 9.41243 13.341 8.65894C12.5875 7.90544 11.5655 7.48213 10.4999 7.48213ZM7.82133 11.5C7.82133 11.1482 7.89062 10.7999 8.02523 10.4749C8.15984 10.15 8.35714 9.85468 8.60587 9.60596C8.8546 9.35723 9.14988 9.15992 9.47486 9.02531C9.79984 8.8907 10.1481 8.82142 10.4999 8.82142C10.8517 8.82142 11.2 8.8907 11.525 9.02531C11.8499 9.15992 12.1452 9.35723 12.3939 9.60596C12.6427 9.85468 12.84 10.15 12.9746 10.4749C13.1092 10.7999 13.1785 11.1482 13.1785 11.5C13.1785 12.2104 12.8963 12.8917 12.3939 13.394C11.8916 13.8964 11.2103 14.1786 10.4999 14.1786C9.7895 14.1786 9.1082 13.8964 8.60587 13.394C8.10354 12.8917 7.82133 12.2104 7.82133 11.5ZM17.3838 18.9955L15.841 18.3178C15.6214 18.2224 15.3825 18.1797 15.1435 18.193C14.9044 18.2064 14.6718 18.2754 14.4642 18.3946C14.0472 18.6357 13.7812 19.0616 13.7285 19.5411L13.5428 21.2196C13.5241 21.3883 13.4537 21.5471 13.3414 21.6743C13.229 21.8015 13.0802 21.8909 12.9151 21.9303C11.3266 22.309 9.6714 22.309 8.08294 21.9303C7.91803 21.8908 7.76935 21.8013 7.65718 21.6741C7.54501 21.5469 7.47481 21.3882 7.45615 21.2196L7.27044 19.5437C7.24377 19.3079 7.1622 19.0816 7.03226 18.8829C6.90232 18.6843 6.72764 18.5189 6.52223 18.4C6.31702 18.2813 6.0868 18.2125 5.85013 18.1992C5.61346 18.1859 5.37696 18.2283 5.15973 18.3232L3.61687 19.0009C3.4609 19.0694 3.28749 19.0877 3.12065 19.0533C2.9538 19.0189 2.80177 18.9335 2.68562 18.8089C1.57514 17.6189 0.748791 16.1927 0.268654 14.6375C0.218168 14.474 0.219749 14.2989 0.273178 14.1364C0.326606 13.9739 0.429239 13.832 0.566869 13.7303L1.93026 12.7232C2.1222 12.5822 2.27826 12.398 2.38582 12.1855C2.49338 11.973 2.54943 11.7382 2.54943 11.5C2.54943 11.2618 2.49338 11.027 2.38582 10.8145C2.27826 10.602 2.1222 10.4178 1.93026 10.2768L0.566869 9.27231C0.429062 9.17063 0.326314 9.02859 0.272877 8.86588C0.219441 8.70317 0.217965 8.52786 0.268654 8.36428C0.749785 6.81041 1.57674 5.38576 2.6874 4.19731C2.80367 4.07285 2.95574 3.98761 3.12258 3.95337C3.28942 3.91914 3.46278 3.93762 3.61865 4.00624L5.15437 4.68213C5.37288 4.77618 5.61037 4.81777 5.84784 4.80357C6.08531 4.78938 6.31615 4.71979 6.52191 4.60038C6.72766 4.48098 6.9026 4.31506 7.03274 4.11592C7.16287 3.91678 7.24458 3.68994 7.27133 3.45356L7.45883 1.77678C7.47771 1.6062 7.54938 1.44577 7.66382 1.31788C7.77827 1.18999 7.92978 1.10102 8.09723 1.06338C8.88383 0.888384 9.68651 0.795527 10.5115 0.785706C11.3169 0.794634 12.1187 0.888384 12.9044 1.06338C13.072 1.10095 13.2237 1.19001 13.3382 1.3181C13.4526 1.44619 13.5242 1.60689 13.5428 1.77767L13.7294 3.45446C13.7696 3.82631 13.9456 4.17024 14.2238 4.42034C14.5019 4.67044 14.8625 4.80912 15.2365 4.80981C15.4445 4.80981 15.6508 4.76606 15.8437 4.68124L17.3794 4.00535C17.5352 3.93672 17.7086 3.91825 17.8754 3.95248C18.0423 3.98671 18.1944 4.07196 18.3106 4.19642C19.421 5.38492 20.2477 6.80958 20.7285 8.36338C20.7791 8.52676 20.7776 8.70181 20.7243 8.86433C20.6711 9.02684 20.5686 9.16879 20.4312 9.27053L19.0695 10.2768C18.6812 10.5625 18.4463 11.017 18.4463 11.5C18.4463 11.9821 18.6812 12.4366 19.0704 12.7232L20.4329 13.7286C20.7151 13.9375 20.8347 14.3018 20.7312 14.6366C20.2504 16.1902 19.4241 17.6148 18.3142 18.8036C18.198 18.9282 18.046 19.0136 17.8792 19.048C17.7123 19.0824 17.5398 19.064 17.3838 18.9955ZM12.5204 18.8187C12.7335 18.1515 13.187 17.5873 13.7928 17.2357C14.1825 17.0112 14.6194 16.8812 15.0685 16.8562C15.5176 16.8312 15.9663 16.912 16.3785 17.092L17.5785 17.6187C18.3493 16.7263 18.9459 15.6972 19.3374 14.5848L18.2758 13.8018C17.9144 13.5364 17.6203 13.189 17.4173 12.7892C17.2143 12.3894 17.108 11.9475 17.107 11.4991C17.107 10.5821 17.5508 9.73124 18.274 9.1991L18.2758 9.1982L19.3356 8.41517C18.9438 7.30301 18.3469 6.27421 17.5758 5.38213L16.3856 5.90535L16.3838 5.90624C16.0213 6.06696 15.6312 6.1491 15.2356 6.1491C14.5322 6.14804 13.8539 5.88772 13.3304 5.41793C12.8069 4.94813 12.475 4.30184 12.3981 3.60267V3.60088L12.2526 2.29731C11.6782 2.19034 11.0957 2.13269 10.5115 2.12499C9.9199 2.13243 9.32998 2.19008 8.74812 2.29731L8.60258 3.60178C8.55253 4.04692 8.39874 4.47412 8.15357 4.84902C7.9084 5.22392 7.57869 5.53608 7.19095 5.76039C6.80321 5.9847 6.36824 6.1149 5.92103 6.14055C5.47381 6.16619 5.02682 6.08655 4.61598 5.90803L3.42312 5.38303C2.65198 6.27508 2.05505 7.30388 1.6633 8.41606L2.7258 9.1991C3.08647 9.46471 3.37966 9.81137 3.58173 10.2111C3.7838 10.6109 3.88907 11.0525 3.88907 11.5004C3.88907 11.9484 3.7838 12.39 3.58173 12.7898C3.37966 13.1895 3.08647 13.5362 2.7258 13.8018L1.6633 14.5857C2.05431 15.6996 2.65095 16.7303 3.42223 17.6241L4.62312 17.0973C5.03266 16.918 5.47861 16.8376 5.92497 16.8624C6.37134 16.8872 6.80562 17.0166 7.19276 17.2402C7.57974 17.4637 7.90889 17.7749 8.15374 18.1488C8.39859 18.5227 8.55232 18.9488 8.60258 19.3928V19.3973L8.74723 20.7045C9.90526 20.9321 11.0954 20.9321 12.2535 20.7045L12.3981 19.3946C12.4195 19.1982 12.4597 19.0045 12.5204 18.8187Z" fill="black"/>
</svg>
