<svg width="39" height="39" viewBox="0 0 39 39" fill="none" xmlns="http://www.w3.org/2000/svg">
<path d="M29.7648 23.2684C30.3168 23.2684 30.8547 23.3745 31.3783 23.5868C31.902 23.7991 32.362 24.1034 32.7583 24.4997C33.0555 24.797 33.3881 25.1083 33.7561 25.4339C34.1241 25.7594 34.5133 26.1062 34.9238 26.4741C35.3342 26.8421 35.7164 27.2243 36.0702 27.6206C36.4241 28.0169 36.7567 28.4203 37.068 28.8307C37.3794 29.2412 37.613 29.6799 37.7686 30.147C37.9243 30.614 38.0163 31.0811 38.0446 31.5482C38.0446 32.1002 37.9385 32.638 37.7262 33.1617C37.5139 33.6854 37.2096 34.1453 36.8133 34.5416C36.0915 35.2635 35.4404 35.9004 34.8601 36.4524C34.2798 37.0044 33.6783 37.4714 33.0555 37.8536C32.4328 38.2357 31.7322 38.5188 30.9537 38.7028C30.1753 38.8868 29.2624 38.9858 28.215 39C26.6723 39 25.0871 38.7594 23.4594 38.2782C21.8318 37.797 20.2112 37.1317 18.5977 36.2825C16.9842 35.4333 15.4061 34.4213 13.8634 33.2466C12.3206 32.0719 10.8628 30.791 9.48993 29.4039C8.11704 28.0169 6.84322 26.552 5.66848 25.0093C4.49374 23.4665 3.49592 21.8955 2.67501 20.2961C1.85411 18.6968 1.20305 17.0904 0.721829 15.4769C0.24061 13.8634 0 12.3065 0 10.8062C0 9.73054 0.0919978 8.81056 0.275993 8.04627C0.459989 7.28198 0.743059 6.58846 1.1252 5.9657C1.50735 5.34295 1.97441 4.74143 2.5264 4.16113C3.07839 3.58084 3.72237 2.9227 4.45836 2.18672C4.85465 1.79042 5.31464 1.48612 5.83832 1.27382C6.362 1.06151 6.89984 0.955362 7.45182 0.955362C8.1595 0.955362 8.83887 1.14643 9.48993 1.52858C10.141 1.91072 10.7708 2.37779 11.3794 2.92978C11.988 3.48176 12.5471 4.06206 13.0566 4.67066C13.5661 5.27926 14.0474 5.80294 14.5003 6.2417C14.8966 6.638 15.2009 7.09799 15.4132 7.62167C15.6255 8.14535 15.7316 8.68318 15.7316 9.23517C15.7316 9.78715 15.6396 10.2825 15.4556 10.7213C15.2716 11.16 15.0452 11.5493 14.7763 11.8889C14.5073 12.2286 14.2101 12.5471 13.8846 12.8443C13.5591 13.1415 13.2618 13.4246 12.9929 13.6935C12.724 13.9624 12.4905 14.2243 12.2923 14.479C12.0942 14.7338 12.0022 15.0169 12.0163 15.3283C12.0163 15.4981 12.1437 15.767 12.3985 16.135C12.6532 16.503 13.0071 16.9418 13.46 17.4513C13.9129 17.9608 14.4154 18.5057 14.9673 19.086C15.5193 19.6663 16.1138 20.2678 16.7507 20.8906C17.3876 21.5133 18.0033 22.1149 18.5977 22.6952C19.1922 23.2754 19.7654 23.8274 20.3174 24.3511C20.8694 24.8748 21.3364 25.3206 21.7186 25.6886C22.1007 26.0566 22.3979 26.3397 22.6102 26.5378C22.9075 26.8351 23.2613 26.9837 23.6717 26.9837C23.969 26.9837 24.245 26.8917 24.4997 26.7077C24.7545 26.5237 25.0163 26.2972 25.2852 26.0283C25.5542 25.7594 25.8302 25.4622 26.1132 25.1366C26.3963 24.8111 26.7218 24.5139 27.0898 24.245C27.4578 23.976 27.847 23.7425 28.2575 23.5444C28.6679 23.3462 29.1704 23.2542 29.7648 23.2684ZM28.215 36.2825C29.0784 36.2825 29.8002 36.2047 30.3805 36.049C30.9608 35.8933 31.4916 35.6527 31.9728 35.3272C32.454 35.0016 32.9069 34.6195 33.3315 34.1807C33.7561 33.742 34.2727 33.2254 34.8813 32.6309C35.1786 32.3337 35.3272 31.9799 35.3272 31.5694C35.3272 31.3854 35.2139 31.1236 34.9875 30.7839C34.761 30.4442 34.478 30.0621 34.1383 29.6375C33.7986 29.2128 33.4094 28.7882 32.9706 28.3636C32.5318 27.939 32.1072 27.5498 31.6968 27.196C31.2863 26.8421 30.9113 26.552 30.5716 26.3255C30.2319 26.0991 29.963 25.9858 29.7648 25.9858C29.4676 25.9858 29.1845 26.0778 28.9156 26.2618C28.6467 26.4458 28.3849 26.6723 28.1301 26.9412C27.8753 27.2101 27.5993 27.5073 27.3021 27.8329C27.0049 28.1584 26.6794 28.4556 26.3255 28.7246C25.9717 28.9935 25.5825 29.227 25.1579 29.4251C24.7333 29.6233 24.2379 29.7153 23.6717 29.7011C23.1056 29.7011 22.5678 29.595 22.0582 29.3827C21.5487 29.1704 21.0887 28.859 20.6783 28.4486L10.5514 18.3217C10.1551 17.9254 9.85084 17.4725 9.63854 16.963C9.42624 16.4535 9.31301 15.9085 9.29886 15.3283C9.29886 14.7763 9.39085 14.288 9.57485 13.8634C9.75885 13.4388 9.9853 13.0425 10.2542 12.6745C10.5231 12.3065 10.8204 11.988 11.1459 11.7191C11.4714 11.4502 11.7686 11.1671 12.0376 10.8699C12.3065 10.5727 12.54 10.3108 12.7382 10.0844C12.9363 9.85792 13.0283 9.57485 13.0142 9.23517C13.0142 9.05117 12.9009 8.78933 12.6745 8.44965C12.448 8.10996 12.1649 7.73489 11.8253 7.32444C11.4856 6.91399 11.0964 6.48939 10.6576 6.05063C10.2188 5.61187 9.79423 5.22265 9.38378 4.88296C8.97333 4.54328 8.59118 4.25313 8.23734 4.01252C7.88351 3.77191 7.62167 3.65868 7.45182 3.67284C7.02722 3.67284 6.6663 3.82145 6.36908 4.11867C5.78879 4.69897 5.27218 5.20849 4.81927 5.64725C4.36636 6.08601 3.98421 6.53892 3.67284 7.00599C3.36146 7.47305 3.12793 8.00381 2.97224 8.59826C2.81655 9.19271 2.73163 9.90746 2.71747 10.7425C2.71747 12.1013 2.93685 13.5024 3.37561 14.9461C3.81437 16.3898 4.42297 17.8476 5.20142 19.3195C5.97986 20.7915 6.91399 22.221 8.00381 23.6081C9.09363 24.9951 10.2613 26.3185 11.5068 27.5781C12.7523 28.8378 14.0827 29.9984 15.4981 31.0599C16.9134 32.1214 18.343 33.0414 19.7866 33.8198C21.2303 34.5983 22.6668 35.1998 24.0964 35.6244C25.5259 36.049 26.8987 36.2684 28.215 36.2825ZM35.3272 17.2602H21.7398V3.67284H24.4573V12.6108L37.0893 0L39 1.91072L26.3892 14.5427H35.3272V17.2602Z" fill="white"/>
</svg>
